<svg height="512pt" viewBox="0 0 512 512" width="512pt" xmlns="http://www.w3.org/2000/svg"><path d="m512 256c0 11.535156-.761719 22.882812-2.234375 34.011719-.648437 4.847656-1.433594 9.664062-2.34375 14.429687-1.367187 7.167969-3.039063 14.230469-5.003906 21.167969-30.324219 107.554687-129.160157 186.390625-246.417969 186.390625-117.769531 0-216.972656-79.539062-246.816406-187.820312-1.785156-6.476563-3.332032-13.0625-4.605469-19.738282-.859375-4.453125-1.589844-8.945312-2.207031-13.46875-1.566406-11.429687-2.371094-23.113281-2.371094-34.972656 0-141.386719 114.613281-256 256-256s256 114.613281 256 256zm0 0" fill="#96d6d4"/><path d="m471.515625 80.960938c0 30.082031-24.386719 54.464843-54.46875 54.464843s-54.46875-24.382812-54.46875-54.464843c0-30.082032 24.386719-54.46875 54.46875-54.46875s54.46875 24.386718 54.46875 54.46875zm0 0" fill="#ffbb16"/><path d="m486.390625 304.441406h-449.882813l71.835938-142.449218c4.527344-8.988282 15.882812-12.007813 24.285156-6.480469l24.878906 16.382812c8.183594 5.394531 19.226563 2.675781 23.980469-5.890625l51.210938-92.378906c3.824219-6.898438 11.199219-9.636719 17.886719-8.371094 5.046874.949219 9.707031 4.167969 12.164062 9.582032l27.34375 60.300781c4.703125 10.375 17.734375 12.863281 25.945312 6.132812 1.097657-.898437 2.101563-1.953125 3-3.1875 3.386719-4.660156 8.496094-6.925781 13.59375-6.925781 2.109376 0 4.210938.386719 6.175782 1.160156 3.511718 1.355469 6.613281 3.917969 8.628906 7.636719l36.4375 67.074219c5.371094 9.882812 18.734375 11.816406 26.6875 3.863281l.15625-.15625c4.648438-4.648437 11.136719-5.914063 16.800781-4.199219 4.035157 1.222656 7.648438 3.949219 9.875 8.046875zm0 0" fill="#757177"/><path d="m145.226562 243.65625-17.707031 60.785156h-91.011719l71.835938-142.449218c4.527344-8.988282 15.882812-12.007813 24.285156-6.480469l-14.734375 51.835937c-2.582031 9.082032 4.238281 18.109375 13.679688 18.109375 9.476562 0 16.304687 9.097657 13.652343 18.199219zm0 0" fill="#2f373b"/><path d="m419.429688 246.5625 4.179687 11.84375c1.476563 4.179688 1.160156 8.78125-.878906 12.71875l-17.226563 33.316406-11.453125-21.902344c-2.609375-4.996093-2.410156-11 .527344-15.8125l5.652344-9.253906c2.855469-4.671875 3.128906-10.480468.730469-15.40625l-17.085938-35.039062c5.371094 9.882812 18.734375 11.816406 26.6875 3.863281l.15625-.15625c4.648438-4.648437 11.136719-5.914063 16.800781-4.199219l-8.421875 30.398438c-.878906 3.167968-.761718 6.527344.332032 9.628906zm0 0" fill="#2f373b"/><path d="m191.035156 304.441406 12.355469-29.15625c2.230469-5.265625 9.082031-6.601562 13.125-2.558594 3.449219 3.453126 9.152344 3.070313 12.113281-.8125l17.484375-22.921874c3.546875-4.652344 10.714844-4.09375 13.5 1.050781l29.464844 54.398437zm0 0" fill="#2f373b"/><path d="m332.652344 304.441406v-22.570312c0-5.140625 6.128906-7.8125 9.898437-4.3125l28.90625 26.882812zm0 0" fill="#2f373b"/><path d="m509.765625 290.011719c-.648437 4.847656-1.433594 9.664062-2.34375 14.429687-1.367187 7.167969-3.039063 14.230469-5.003906 21.167969-1.136719-1.492187-2.089844-3.132813-2.851563-4.867187-3.742187 8.558593-12.269531 14.535156-22.214844 14.535156-9.925781 0-18.464843-5.976563-22.203124-14.535156-3.730469 8.558593-12.269532 14.535156-22.195313 14.535156-9.945313 0-18.472656-5.976563-22.214844-14.535156-3.738281 8.558593-12.277343 14.535156-22.203125 14.535156-9.9375 0-18.464844-5.976563-22.203125-14.535156-3.742187 8.558593-12.277343 14.535156-22.214843 14.535156-9.925782 0-18.464844-5.976563-22.203126-14.535156-3.730468 8.558593-12.269531 14.535156-22.195312 14.535156-9.949219 0-18.484375-5.976563-22.214844-14.535156-3.019531 6.90625-9.164062 12.132812-16.644531 13.886718v.011719c-.011719 0-.03125 0-.054687.007813-.144532.03125-.300782.0625-.449219.09375-.386719.085937-.769531.15625-1.15625.222656-.191407.03125-.378907.050781-.566407.082031-.375.050781-.761718.09375-1.148437.125-.167969.019531-.34375.03125-.511719.042969-.554687.039062-1.109375.0625-1.671875.0625-.566406 0-1.117187-.023438-1.671875-.0625-.167968-.011719-.34375-.023438-.511718-.042969-.386719-.03125-.773438-.074219-1.152344-.125-.1875-.03125-.375-.050781-.5625-.082031-.386719-.066406-.773438-.136719-1.160156-.222656-.144532-.03125-.300782-.0625-.449219-.09375-.019531-.007813-.042969-.007813-.0625-.007813v-.011719c-7.472657-1.753906-13.613281-6.980468-16.632813-13.886718-3.730468 8.558593-12.269531 14.535156-22.214844 14.535156-9.929687 0-18.464843-5.976563-22.207031-14.535156-3.730469 8.558593-12.265625 14.535156-22.191406 14.535156-9.9375 0-18.472656-5.976563-22.214844-14.535156-3.742187 8.558593-12.265625 14.535156-22.203125 14.535156s-18.464844-5.976563-22.207031-14.535156c-3.738281 8.558593-12.277344 14.535156-22.214844 14.535156-9.925781 0-18.460937-5.976563-22.191406-14.535156-3.742187 8.558593-12.277344 14.535156-22.203125 14.535156-9.949219 0-18.484375-5.976563-22.214844-14.535156-.523437 1.203124-1.152344 2.351562-1.851562 3.4375-1.785156-6.476563-3.332032-13.0625-4.605469-19.738282-.859375-4.453125-1.589844-8.945312-2.207031-13.46875 3.792968 2.558594 6.8125 6.164063 8.664062 10.40625 3.730469-8.566406 12.265625-14.542968 22.214844-14.542968 9.925781 0 18.460938 5.976562 22.203125 14.542968 3.730469-8.566406 12.265625-14.542968 22.191406-14.542968 9.9375 0 18.476563 5.976562 22.214844 14.542968 3.742187-8.566406 12.269531-14.542968 22.207031-14.542968s18.460938 5.976562 22.203125 14.542968c3.742188-8.566406 12.277344-14.542968 22.214844-14.542968 9.925781 0 18.460937 5.976562 22.191406 14.542968 3.742188-8.566406 12.277344-14.542968 22.207031-14.542968 9.945313 0 18.484376 5.976562 22.214844 14.542968 2.402344-5.503906 6.789063-9.925781 12.246094-12.402344 0 0 0 0 0-.011718.386719-.164063.761719-.332032 1.15625-.488282.492188-.1875.996094-.355468 1.496094-.523437.136718-.042969.261718-.074219.398437-.113281.417969-.128906.84375-.242188 1.273438-.347656.105469-.019532.199219-.050782.304687-.070313.519532-.117187 1.042969-.222656 1.585938-.304687.105468-.011719.210937-.019532.324218-.042969.429688-.0625.878907-.101563 1.316407-.144531.148437-.011719.292969-.03125.449219-.042969.542968-.03125 1.097656-.050781 1.652343-.050781 9.925781 0 18.460938 5.976562 22.203125 14.542968 3.730469-8.566406 12.265625-14.542968 22.214844-14.542968 9.925781 0 18.464844 5.976562 22.195312 14.542968 3.738282-8.566406 12.277344-14.542968 22.203126-14.542968 9.9375 0 18.472656 5.976562 22.214843 14.542968 3.738281-8.566406 12.265625-14.542968 22.203125-14.542968 9.925782 0 18.464844 5.976562 22.203125 14.542968 3.742188-8.566406 12.269531-14.542968 22.214844-14.542968 9.925781 0 18.464844 5.976562 22.195313 14.542968 3.738281-8.566406 12.277343-14.542968 22.203124-14.542968 9.945313 0 18.472657 5.976562 22.214844 14.542968 2.097656-4.796875 5.695313-8.785156 10.199219-11.367187zm0 0" fill="#21bf4a"/><path d="m507.421875 304.441406c-.613281 3.199219-1.285156 6.375-2.015625 9.53125-26.269531 113.453125-127.957031 198.027344-249.40625 198.027344s-223.136719-84.574219-249.40625-198.027344c-.730469-3.15625-1.402344-6.332031-2.015625-9.53125zm0 0" fill="#69b8d4"/><g fill="#96d6d4"><path d="m431.925781 333.761719c0-1.863281-7.785156-3.375-17.390625-3.375-9.605468 0-17.394531 1.511719-17.394531 3.375s7.789063 3.375 17.394531 3.375c9.605469 0 17.390625-1.511719 17.390625-3.375zm0 0"/><path d="m404.015625 351.828125c0-1.863281-7.785156-3.375-17.390625-3.375s-17.394531 1.511719-17.394531 3.375c0 1.867187 7.789062 3.378906 17.394531 3.378906s17.390625-1.511719 17.390625-3.378906zm0 0"/><path d="m237.089844 332.664062c0-1.863281-7.785156-3.375-17.390625-3.375s-17.390625 1.511719-17.390625 3.375c0 1.863282 7.785156 3.375 17.390625 3.375s17.390625-1.511718 17.390625-3.375zm0 0"/><path d="m341.957031 467.074219c0-3.207031-13.394531-5.804688-29.914062-5.804688s-29.914063 2.597657-29.914063 5.804688 13.394532 2.148437 29.914063 2.148437 29.914062 1.058594 29.914062-2.148437zm0 0"/><path d="m274.597656 482.265625c0-3.207031-13.394531-5.804687-29.914062-5.804687-16.519532 0-29.914063 2.597656-29.914063 5.804687s13.394531 2.148437 29.914063 2.148437c16.519531 0 29.914062 1.058594 29.914062-2.148437zm0 0"/><path d="m163.078125 413.074219c0-3.207031-13.390625-5.804688-29.914063-5.804688-16.519531 0-29.914062 2.601563-29.914062 5.804688 0 3.207031 13.394531 2.148437 29.914062 2.148437 16.523438 0 29.914063 1.058594 29.914063-2.148437zm0 0"/></g><path d="m228.085938 187.621094c5.953124 5.949218 5.953124 15.597656.003906 21.550781l-11.125 11.128906c-5.949219 5.953125-15.597656 5.953125-21.550782.003907l-18.023437-18.023438c-4.226563-4.230469-5.589844-10.542969-3.484375-16.140625l7.582031-20.136719 51.210938-92.378906c3.824219-6.898438 11.203125-9.632812 17.890625-8.371094l-26.527344 107.957032c-1.277344 5.175781.25 10.644531 4.023438 14.410156zm0 0" fill="#2f373b"/><path d="m325.917969 202.644531 2.214843 11.550781c.699219 3.644532-.429687 7.40625-3.015624 10.066407l-9.59375 9.867187c-5.144532 5.289063-13.886719 4.355469-17.796876-1.90625-1.613281-2.582031-2.121093-5.707031-1.414062-8.671875l19.726562-82.28125c1.097657-.898437 2.101563-1.953125 3-3.1875 3.386719-4.660156 8.496094-6.925781 13.59375-6.925781 2.109376 0 4.210938.386719 6.175782 1.160156l-11.269532 37.875c-3.136718 10.53125-3.691406 21.664063-1.621093 32.453125zm0 0" fill="#2f373b"/><path d="m507.421875 304.441406c-.613281 3.199219-1.285156 6.375-2.015625 9.53125h-498.8125c-.730469-3.15625-1.402344-6.332031-2.015625-9.53125zm0 0" fill="#96d6d4"/></svg>